Coordinates
version=1
nRows=19
nColumns=24
inDegrees=yes

Units are S.I. units (second, meters, Newtons, ...)
Angles are in degrees.

endheader
time	pelvis_tilt	pelvis_list	pelvis_rotation	pelvis_tx	pelvis_ty	pelvis_tz	hip_flexion_r	hip_adduction_r	hip_rotation_r	knee_angle_r	ankle_angle_r	subtalar_angle_r	mtp_angle_r	hip_flexion_l	hip_adduction_l	hip_rotation_l	knee_angle_l	ankle_angle_l	subtalar_angle_l	mtp_angle_l	lumbar_extension	lumbar_bending	lumbar_rotation
      0.97483333	     -3.05280910	      0.70044574	      1.45430299	     -0.15585819	      1.00517884	      0.32383474	    -14.12817803	      3.00060820	     -0.62805893	     -5.24209018	      6.34372177	     -9.35204510	      4.20454212	     18.81477752	      2.93910290	      3.89020164	      4.63345180	      1.42066746	     -4.21373245	      4.22136399	    -10.28635116	      4.66142115	      5.36521815
      0.97900000	     -3.05428108	      0.71204875	      1.42375571	     -0.15008964	      1.00448193	      0.32357742	    -14.26074072	      2.95295392	     -0.64292204	     -5.66076299	      6.25019089	     -9.33153250	      4.23777463	     18.77783228	      3.03558368	      4.01658373	      4.71044717	      1.45528530	     -4.16193481	      4.23146015	    -10.23379421	      4.65134856	      5.35559962
      0.98316667	     -3.04872716	      0.76933962	      1.42866032	     -0.14431009	      1.00378088	      0.32317875	    -14.31368778	      2.83944522	     -0.94385780	     -6.28423591	      6.47598058	     -8.72867743	      4.58670108	     18.74067404	      3.19820173	      4.23996738	      4.69435485	      1.38871467	     -4.29732240	      4.30753506	    -10.18998467	      4.60187489	      5.25915887
      0.98733333	     -3.03657434	      0.81317734	      1.45410287	     -0.13851509	      1.00311893	      0.32280477	    -14.40740536	      2.75665243	     -1.12381966	     -6.81165919	      6.38334441	     -8.59141881	      9.69805682	     18.70027690	      3.34654664	      4.54369632	      4.60229667	      1.25327385	     -4.49345779	      5.38288868	    -10.17499875	      4.56004687	      5.20928259
      0.99150000	     -3.02269689	      0.89836181	      1.43628911	     -0.13268294	      1.00249336	      0.32248496	    -14.46071729	      2.61572390	     -1.27609765	     -7.44468168	      6.44481117	     -8.27664548	      9.75769688	     18.67510591	      3.52765107	      4.72217678	      4.39253937	      1.17549126	     -4.62609780	      5.37993239	    -10.14552417	      4.46561763	      5.12437832
      0.99566667	     -3.01349821	      0.96593675	      1.45200097	     -0.12685296	      1.00187558	      0.32211280	    -14.49263787	      2.49888105	     -1.46250398	     -8.10609887	      6.45604730	     -7.97276568	      9.86047971	     18.66188317	      3.69958772	      5.00723759	      4.11029039	      1.02266209	     -4.88119671	      5.38666375	    -10.11015735	      4.39024300	      5.04462938
      0.99983333	     -2.98036821	      1.05482162	      1.47436255	     -0.12099301	      1.00131447	      0.32173667	    -14.53372830	      2.35925004	     -1.66509773	     -8.80161065	      6.44767977	     -7.66606190	     10.00914946	     18.62450745	      3.89470644	      5.31181249	      3.76424981	      0.80758274	     -5.20879484	      5.40400378	    -10.10177140	      4.29253163	      4.95029635
      1.00400000	     -2.95689361	      1.14288870	      1.50163320	     -0.11512065	      1.00075656	      0.32134068	    -14.53971549	      2.21827760	     -1.87107759	     -9.54466552	      6.41293497	     -7.36747308	     10.21157611	     18.60540818	      4.09197863	      5.64257281	      3.34904256	      0.54225485	     -5.60845278	      5.43374833	    -10.07904547	      4.19437420	      4.85601871
      1.00816667	     -2.94313489	      1.23288954	      1.53629715	     -0.10924037	      1.00020607	      0.32094168	    -14.51060474	      2.07421158	     -2.08256092	    -10.33406891	      6.33996001	     -7.08428245	     10.47438280	     18.60813317	      4.29339330	      5.98416196	      2.86409287	      0.23003886	     -6.06543541	      5.47547554	    -10.04506233	      4.09571822	      4.75240691
      1.01233333	     -2.91700071	      1.32658000	      1.58130826	     -0.10335073	      0.99968816	      0.32052136	    -14.47243066	      1.92565276	     -2.30638262	    -11.16424858	      6.23164302	     -6.80269518	     10.80045004	     18.60362352	      4.50258364	      6.33920122	      2.32663680	     -0.12137922	     -6.57048299	      5.52959151	    -10.02294076	      3.99134664	      4.63950571
      1.01650000	     -2.78679442	      1.45249881	      1.62161608	     -0.09740119	      0.99934670	      0.32011856	    -14.55350438	      1.74779061	     -2.50631410	    -11.96969548	      5.98528356	     -6.66663293	     12.45694054	     18.43473451	      4.73689656	      6.81515424	      1.85933738	     -0.62615997	     -7.36228072	      5.81299048	    -10.13748516	      3.84178747	      4.52558068
      1.02066667	     -2.83392617	      1.53319550	      1.68064059	     -0.09152555	      0.99877473	      0.31966977	    -14.37513828	      1.60662857	     -2.73310849	    -12.90133462	      5.74692023	     -6.49327090	     16.57522218	     18.56162267	      4.94449788	      7.10856635	      1.15084269	     -1.00982483	     -7.85740759	      6.42470968	    -10.02286996	      3.74870180	      4.44082021
      1.02483333	     -2.82804842	      1.63803170	      1.73147601	     -0.08562437	      0.99829987	      0.31922454	    -14.22069836	      1.43132423	     -2.98993070	    -13.90429522	      5.52044041	     -6.17608202	     16.66231777	     18.63548896	      5.17192812	      7.31357548	      0.40466746	     -1.34195543	     -8.19196195	      6.42230782	     -9.97166114	      3.63044519	      4.31122641
      1.02900000	     -2.79387514	      1.74932245	      1.78779189	     -0.07972155	      0.99788422	      0.31876116	    -14.07427136	      1.24746599	     -3.24740448	    -14.94337700	      5.25132708	     -5.89451192	     16.84372984	     18.65818121	      5.40832503	      7.62426192	     -0.31846184	     -1.79219162	     -8.80604854	      6.42291035	     -9.95967976	      3.50846174	      4.18142577
      1.03316667	     -2.71852983	      1.86621696	      1.82962657	     -0.07380559	      0.99755620	      0.31832320	    -13.95273719	      1.05411925	     -3.47243307	    -16.00449642	      4.87100744	     -5.67975531	     17.34565073	     18.61761019	      5.64407437	      7.96965061	     -1.02161461	     -2.25847581	     -9.55040410	      6.43555159	    -10.00215411	      3.37215096	      4.04902709
      1.03733333	     -2.74309056	      1.96513985	      1.89159209	     -0.06793573	      0.99711761	      0.31785900	    -13.66499342	      0.87290501	     -3.72945002	    -17.17412301	      4.47015455	     -5.48787256	     17.60876251	     18.73566652	      5.86942287	      8.18945267	     -1.83715916	     -2.66506238	     -9.97799051	      6.43579563	     -9.91452606	      3.25470752	      3.95779838
      1.04150000	     -2.59729221	      2.10647977	      1.95597525	     -0.06201645	      0.99694045	      0.31737414	    -13.57116992	      0.64718431	     -4.01063994	    -18.30443083	      3.95400087	     -5.30638722	     19.19793918	     18.59851915	      6.13768377	      8.59806007	     -2.52256425	     -3.25677001	    -10.88824309	      6.44288313	    -10.05552215	      3.09444687	      3.80555744
      1.04566667	     -2.67922347	      2.18824416	      1.98093485	     -0.05619406	      0.99646451	      0.31695102	    -13.12932863	      0.45915537	     -4.21692427	    -19.62110994	      3.43031163	     -5.12922323	     19.48420832	     18.82005940	      6.33676028	      8.66910520	     -3.45027486	     -3.46419755	    -11.14880714	      6.43719201	     -9.89811039	      2.99244481	      3.73973078
      1.04983333	     -2.53124615	      2.34357112	      2.03376265	     -0.05031125	      0.99634203	      0.31644932	    -12.95396616	      0.19226144	     -4.52560915	    -20.88489673	      2.79044374	     -4.92131480	     22.21881274	     18.67465476	      6.61951423	      9.06390002	     -4.14342017	     -4.01296210	    -12.07713329	      6.35040697	    -10.04877699	      2.82751089	      3.55953774
